<svg width="250" height="88" viewBox="0 0 250 88" fill="none" xmlns="http://www.w3.org/2000/svg">
  <path fill-rule="evenodd" clip-rule="evenodd" d="M14.5873 43.0651C14.5442 51.2626 20.5551 56.1495 30.1473 53.9276V32.2026C20.4339 29.2445 14.6279 35.2292 14.5873 43.0651ZM30.4407 0.788849H43.652V63.3223C30.9885 65.3926 18.8601 66.7057 10.1835 61.8542C-0.988333 55.6079 -1.88647 35.7585 6.95385 26.9179C11.436 22.436 20.4595 19.2807 30.1473 21.3398V1.6698C30.122 1.25292 30.0985 0.837909 30.4407 0.788849Z" fill="white"/>
  <path fill-rule="evenodd" clip-rule="evenodd" d="M65.0836 14.5872H51.8724V0.788788H65.0836V14.5872Z" fill="white"/>
  <path fill-rule="evenodd" clip-rule="evenodd" d="M223.619 54.5147C238.021 60.1115 239.614 28.7359 225.087 31.615C216.065 33.4031 216.355 51.6919 223.619 54.5147ZM224.206 20.7525C235.204 19.5765 243.502 24.43 246.812 31.9087C252.46 44.669 246.502 59.3109 237.418 63.6159C232.709 65.8472 227.779 66.0597 223.325 65.6709C209.559 64.4703 200.876 50.4403 205.71 34.8444C206.467 32.4034 207.317 30.9103 207.766 30.1472C210.758 25.0591 215.81 21.6503 224.206 20.7525Z" fill="white"/>
  <path fill-rule="evenodd" clip-rule="evenodd" d="M83.286 49.5238C79.632 55.6648 88.8129 57.136 94.7354 55.3957V46.2944C90.1848 46.9298 85.0051 46.6341 83.286 49.5238ZM106.479 63.9095C95.5657 64.5373 78.9807 68.2548 73.0104 60.9738C69.5029 56.6957 69.8801 48.536 73.0104 44.5329C77.0557 39.3604 85.8864 38.2323 93.8548 37.4869C94.5782 35.7057 94.0904 32.8076 93.2676 31.6148C85.9789 29.7582 78.737 32.6351 73.5979 34.8441V24.5691C81.3598 21.0029 99.3385 17.2479 104.718 25.4498C107.543 29.7576 106.479 37.2704 106.479 43.9454V63.9095Z" fill="white"/>
  <path fill-rule="evenodd" clip-rule="evenodd" d="M152.865 64.497H139.654V47.4688C139.654 41.8623 140.561 34.7532 137.598 32.496C135.278 30.7273 129.774 31.6148 126.443 32.496V64.497H113.231V23.6885C126.737 20.1804 151.114 16.4191 152.865 33.3766C153.729 41.7373 152.226 54.2807 152.865 64.497Z" fill="white"/>
  <path fill-rule="evenodd" clip-rule="evenodd" d="M172.535 50.4046C174.759 54.0014 180.779 55.3502 185.746 53.0467C185.474 46.1758 185.378 39.1274 185.453 31.9086C174.035 28.8921 167.231 41.8246 172.535 50.4046ZM205.71 22.5142C204.535 26.0358 202.814 29.0118 201.307 32.2027C199.945 32.5077 198.765 31.6614 198.077 32.2027C197.776 46.5136 201.125 65.9142 195.435 76.2399C192.009 82.4567 185.701 86.4452 176.058 87.1027C169.034 87.5818 163.581 86.4339 158.443 84.4605V72.1299C164.47 75.6486 179.698 78.5174 183.985 71.2489C185.246 69.1105 185.166 66.9002 185.746 63.6158C182.986 63.7608 180.307 65.0389 176.939 65.0839C163.093 65.2677 154.527 54.243 157.856 38.9545C159.144 33.0408 162.609 28.2793 167.251 25.4499C176.893 19.5733 191.714 20.0196 205.71 22.5142Z" fill="white"/>
  <path fill-rule="evenodd" clip-rule="evenodd" d="M65.0837 21.5743C65.0687 31.3027 65.0709 38.2933 65.0699 50.1121C64.5087 61.7268 64.6393 70.9759 60.3865 76.5334C59.5477 77.6293 57.7665 79.228 56.2762 80.3502C55.0246 81.2924 52.6393 83.203 51.2852 83.2862C49.9202 83.37 46.4134 81.3912 44.8262 80.6437C42.7421 79.6621 40.8155 78.3587 38.6612 77.708C43.6865 74.594 48.4568 72.2593 50.4043 65.9646C52.098 60.4902 51.8724 52.5574 51.8724 44.8265C51.8724 37.1927 51.9065 28.3177 51.9065 21.5777L65.0837 21.5743Z" fill="white"/>
  </svg>
  