<svg width="707" height="686" viewBox="0 0 707 686" fill="none" xmlns="http://www.w3.org/2000/svg">
  <path d="M350.986 2.06011C344.773 2.37311 338.685 3.91365 333.08 6.59136L88.7364 123.341C82.4122 126.362 76.8554 130.756 72.4787 136.199C68.1019 141.641 65.0177 147.992 63.4552 154.779L3.17391 417.029C1.78192 423.071 1.62614 429.329 2.71578 435.432C3.80542 441.535 6.11834 447.359 9.51766 452.56C10.3419 453.832 11.2284 455.062 12.1739 456.248L181.299 666.529C185.677 671.97 191.234 676.363 197.558 679.382C203.883 682.401 210.811 683.968 217.83 683.966L489.049 683.904C496.065 683.909 502.992 682.347 509.316 679.334C515.641 676.32 521.199 671.933 525.58 666.498L694.643 456.185C699.023 450.741 702.109 444.388 703.673 437.598C705.236 430.809 705.237 423.756 703.674 416.966L643.299 154.716C641.736 147.929 638.652 141.579 634.275 136.136C629.899 130.694 624.342 126.299 618.018 123.279L373.643 6.59136C366.592 3.22302 358.802 1.66494 350.986 2.06011Z" stroke="white" stroke-width="4"/>
  <g filter="url(#filter0_d_1_12)">
  <path d="M353.408 91.3072C345.331 91.3081 338.782 98.5831 338.783 107.557C338.783 107.695 338.811 107.827 338.814 107.963C338.802 109.183 338.743 110.652 338.783 111.713C338.975 116.889 340.103 120.851 340.783 125.62C342.013 135.826 343.044 144.287 342.408 152.151C341.789 155.116 339.605 157.828 337.658 159.713L337.314 165.901C328.537 166.628 319.701 167.96 310.876 169.963C272.902 178.586 240.206 198.147 215.314 224.557C213.699 223.455 210.873 221.428 210.033 220.807C207.421 221.16 204.782 221.966 201.345 219.963C194.8 215.558 188.839 209.477 181.626 202.151C178.321 198.647 175.928 195.31 172.001 191.932C171.11 191.165 169.749 190.128 168.751 189.338C165.681 186.891 162.061 185.614 158.564 185.495C154.068 185.341 149.74 187.099 146.908 190.651C141.872 196.966 143.484 206.619 150.501 212.213C150.572 212.27 150.648 212.314 150.72 212.37C151.684 213.151 152.865 214.153 153.751 214.807C157.918 217.884 161.724 219.459 165.876 221.901C174.623 227.303 181.875 231.782 187.626 237.182C189.872 239.576 190.265 243.795 190.564 245.62L195.251 249.807C170.158 287.571 158.544 334.217 165.408 381.745L159.283 383.526C157.668 385.611 155.387 388.891 153.001 389.87C145.476 392.24 137.007 393.11 126.783 394.182C121.982 394.581 117.84 394.343 112.751 395.307C111.631 395.519 110.071 395.926 108.845 396.213C108.802 396.222 108.763 396.235 108.72 396.245C108.653 396.26 108.565 396.293 108.501 396.307C99.8811 398.39 94.3435 406.313 96.1263 414.12C97.9094 421.928 106.329 426.676 115.001 424.807C115.064 424.793 115.155 424.79 115.22 424.776C115.318 424.754 115.404 424.706 115.501 424.682C116.71 424.417 118.225 424.122 119.283 423.839C124.286 422.499 127.909 420.531 132.408 418.807C142.084 415.337 150.099 412.437 157.908 411.307C161.169 411.052 164.605 413.319 166.314 414.276L172.689 413.182C187.359 458.665 218.103 495.427 257.033 518.495L254.376 524.87C255.334 527.345 256.39 530.694 255.677 533.139C252.838 540.5 247.976 548.27 242.439 556.932C239.758 560.934 237.014 564.04 234.595 568.62C234.016 569.716 233.279 571.399 232.72 572.557C228.961 580.6 231.718 589.862 238.939 593.339C246.205 596.836 255.223 593.147 259.126 585.089C259.132 585.077 259.152 585.069 259.157 585.057C259.161 585.048 259.153 585.035 259.157 585.026C259.713 583.884 260.501 582.382 260.97 581.307C263.042 576.56 263.732 572.492 265.189 567.901C269.058 558.181 271.184 547.982 276.511 541.627C277.97 539.887 280.348 539.217 282.814 538.557L286.126 532.557C320.064 545.584 358.053 549.08 396.001 540.464C404.658 538.498 413.016 535.954 421.095 532.901C422.026 534.552 423.756 537.727 424.22 538.526C426.726 539.341 429.46 539.762 431.689 543.057C435.674 549.866 438.4 557.922 441.72 567.651C443.177 572.242 443.898 576.31 445.97 581.057C446.442 582.139 447.226 583.662 447.782 584.807C451.677 592.892 460.725 596.594 468.001 593.089C475.221 589.611 477.981 580.349 474.22 572.307C473.661 571.149 472.893 569.466 472.314 568.37C469.894 563.79 467.151 560.715 464.47 556.714C458.933 548.052 454.34 540.856 451.501 533.495C450.314 529.698 451.702 527.337 452.626 524.87C452.072 524.235 450.887 520.65 450.189 518.964C490.646 495.075 520.487 456.942 534.501 412.901C536.394 413.199 539.683 413.78 540.751 413.995C542.951 412.544 544.973 410.651 548.939 410.964C556.747 412.093 564.762 414.993 574.439 418.464C578.937 420.187 582.56 422.187 587.564 423.526C588.621 423.809 590.136 424.073 591.345 424.339C591.442 424.362 591.528 424.41 591.626 424.432C591.692 424.447 591.782 424.449 591.845 424.464C600.517 426.33 608.939 421.585 610.72 413.776C612.501 405.969 606.966 398.044 598.345 395.964C597.091 395.678 595.313 395.194 594.095 394.964C589.006 394 584.864 394.237 580.064 393.839C569.839 392.767 561.37 391.896 553.845 389.526C550.777 388.336 548.594 384.685 547.532 383.182L541.626 381.464C544.688 359.309 543.863 336.252 538.564 313.182C533.215 289.898 523.763 268.601 511.157 249.839C512.672 248.461 515.534 245.928 516.345 245.182C516.582 242.558 516.378 239.807 519.095 236.901C524.846 231.5 532.098 227.022 540.845 221.62C544.997 219.177 548.834 217.603 553.001 214.526C553.943 213.83 555.23 212.728 556.22 211.932C563.235 206.336 564.851 196.684 559.814 190.37C554.777 184.056 545.017 183.461 538.001 189.057C537.003 189.848 535.648 190.88 534.751 191.651C530.825 195.029 528.4 198.365 525.095 201.87C517.882 209.196 511.921 215.308 505.376 219.714C502.54 221.365 498.386 220.793 496.501 220.682L490.939 224.651C459.22 191.39 416.034 170.126 369.533 165.995C369.403 164.046 369.232 160.524 369.189 159.463C367.285 157.642 364.985 156.087 364.408 152.151C363.771 144.287 364.834 135.826 366.064 125.62C366.743 120.851 367.871 116.889 368.064 111.713C368.108 110.537 368.037 108.829 368.033 107.557C368.032 98.5831 361.485 91.3064 353.408 91.3072ZM335.095 204.745L330.751 281.463L330.439 281.62C330.148 288.483 324.499 293.963 317.564 293.963C314.723 293.963 312.101 293.051 309.97 291.495L309.845 291.557L246.939 246.963C266.272 227.952 291.002 213.903 319.501 207.432C324.707 206.25 329.911 205.373 335.095 204.745ZM371.751 204.745C405.025 208.837 435.796 223.904 459.376 246.995L396.876 291.307L396.658 291.214C391.11 295.265 383.294 294.26 378.97 288.839C377.199 286.618 376.269 284.006 376.158 281.37L376.095 281.339L371.751 204.745ZM224.126 275.62L281.564 326.995L281.501 327.307C286.686 331.814 287.45 339.635 283.126 345.057C281.355 347.278 278.984 348.768 276.439 349.463L276.376 349.713L202.751 370.963C199.004 336.698 207.08 303.39 224.126 275.62ZM482.283 275.651C490.817 289.483 497.279 304.933 501.126 321.682C504.927 338.23 505.881 354.749 504.314 370.713L430.314 349.401L430.251 349.088C423.625 347.277 419.552 340.537 421.095 333.776C421.727 331.006 423.197 328.663 425.189 326.932L425.158 326.776L482.283 275.651ZM341.626 330.963H365.158L379.783 349.245L374.533 372.057L353.408 382.213L332.22 372.026L326.97 349.213L341.626 330.963ZM417.064 393.526C418.064 393.475 419.059 393.566 420.033 393.745L420.158 393.588L496.314 406.463C485.168 437.777 463.841 464.904 435.345 483.057L405.783 411.651L405.876 411.526C403.161 405.216 405.878 397.816 412.126 394.807C413.726 394.037 415.397 393.61 417.064 393.526ZM289.158 393.838C294.969 393.92 300.182 397.954 301.533 403.87C302.165 406.639 301.857 409.383 300.814 411.807L301.033 412.088L271.783 482.776C244.435 465.227 222.653 438.952 211.001 406.713L286.501 393.901L286.626 394.057C287.471 393.902 288.327 393.827 289.158 393.838ZM352.939 424.807C354.963 424.733 357.017 425.148 358.97 426.088C361.53 427.321 363.507 429.262 364.751 431.588H365.033L402.251 498.838C397.421 500.458 392.455 501.842 387.376 502.995C358.912 509.458 330.538 507.499 304.845 498.745L341.97 431.62H342.033C344.26 427.455 348.485 424.971 352.939 424.807Z" fill="white"/>
  </g>
  <defs>
  <filter id="filter0_d_1_12" x="91.7926" y="91.3072" width="523.261" height="511.352" filterUnits="userSpaceOnUse" color-interpolation-filters="sRGB">
  <feFlood flood-opacity="0" result="BackgroundImageFix"/>
  <feColorMatrix in="SourceAlpha" type="matrix" values="0 0 0 0 0 0 0 0 0 0 0 0 0 0 0 0 0 0 127 0" result="hardAlpha"/>
  <feOffset dy="4"/>
  <feGaussianBlur stdDeviation="2"/>
  <feComposite in2="hardAlpha" operator="out"/>
  <feColorMatrix type="matrix" values="0 0 0 0 0 0 0 0 0 0 0 0 0 0 0 0 0 0 0.25 0"/>
  <feBlend mode="normal" in2="BackgroundImageFix" result="effect1_dropShadow_1_12"/>
  <feBlend mode="normal" in="SourceGraphic" in2="effect1_dropShadow_1_12" result="shape"/>
  </filter>
  </defs>
  </svg>
  